<svg width="1440" height="597" viewBox="0 0 1440 597" fill="none" xmlns="http://www.w3.org/2000/svg">
<rect x="32.1995" y="21" width="10" height="10" transform="rotate(46.0493 32.1995 21)" fill="#D9D9D9" fill-opacity="0.3"/>
<rect x="46.1995" y="35" width="10" height="10" transform="rotate(46.0493 46.1995 35)" fill="#D9D9D9" fill-opacity="0.3"/>
<rect x="46.1995" y="7" width="10" height="10" transform="rotate(46.0493 46.1995 7)" fill="#D9D9D9" fill-opacity="0.3"/>
<rect x="22.1995" width="10" height="10" transform="rotate(46.0493 22.1995 0)" fill="#D9D9D9"/>
<rect x="77.1995" y="145" width="10" height="10" transform="rotate(46.0493 77.1995 145)" fill="#D9D9D9" fill-opacity="0.1"/>
<rect x="91.1995" y="159" width="10" height="10" transform="rotate(46.0493 91.1995 159)" fill="#D9D9D9" fill-opacity="0.1"/>
<rect x="91.1995" y="131" width="10" height="10" transform="rotate(46.0493 91.1995 131)" fill="#D9D9D9" fill-opacity="0.1"/>
<rect x="67.1995" y="124" width="10" height="10" transform="rotate(46.0493 67.1995 124)" fill="#D9D9D9" fill-opacity="0.3"/>
<rect x="75.1995" y="297" width="10" height="10" transform="rotate(46.0493 75.1995 297)" fill="#D9D9D9" fill-opacity="0.1"/>
<rect x="89.1995" y="311" width="10" height="10" transform="rotate(46.0493 89.1995 311)" fill="#D9D9D9" fill-opacity="0.1"/>
<rect x="89.1995" y="283" width="10" height="10" transform="rotate(46.0493 89.1995 283)" fill="#D9D9D9" fill-opacity="0.1"/>
<rect x="65.1995" y="276" width="10" height="10" transform="rotate(46.0493 65.1995 276)" fill="#D9D9D9" fill-opacity="0.1"/>
<rect x="39.1995" y="311" width="10" height="10" transform="rotate(46.0493 39.1995 311)" fill="#D9D9D9" fill-opacity="0.3"/>
<rect x="53.1995" y="325" width="10" height="10" transform="rotate(46.0493 53.1995 325)" fill="#D9D9D9" fill-opacity="0.3"/>
<rect x="53.1995" y="297" width="10" height="10" transform="rotate(46.0493 53.1995 297)" fill="#D9D9D9" fill-opacity="0.3"/>
<rect x="29.1995" y="290" width="10" height="10" transform="rotate(46.0493 29.1995 290)" fill="#D9D9D9"/>
<rect x="34.1995" y="366" width="10" height="10" transform="rotate(46.0493 34.1995 366)" fill="#D9D9D9" fill-opacity="0.3"/>
<rect x="48.1995" y="380" width="10" height="10" transform="rotate(46.0493 48.1995 380)" fill="#D9D9D9" fill-opacity="0.3"/>
<rect x="48.1995" y="352" width="10" height="10" transform="rotate(46.0493 48.1995 352)" fill="#D9D9D9" fill-opacity="0.3"/>
<rect x="24.1995" y="345" width="10" height="10" transform="rotate(46.0493 24.1995 345)" fill="#D9D9D9"/>
<rect x="85.1995" y="346" width="10" height="10" transform="rotate(46.0493 85.1995 346)" fill="#D9D9D9" fill-opacity="0.1"/>
<rect x="99.1995" y="360" width="10" height="10" transform="rotate(46.0493 99.1995 360)" fill="#D9D9D9" fill-opacity="0.1"/>
<rect x="99.1995" y="332" width="10" height="10" transform="rotate(46.0493 99.1995 332)" fill="#D9D9D9" fill-opacity="0.1"/>
<rect x="75.1995" y="325" width="10" height="10" transform="rotate(46.0493 75.1995 325)" fill="#D9D9D9" fill-opacity="0.3"/>
<rect x="72.1995" y="384" width="10" height="10" transform="rotate(46.0493 72.1995 384)" fill="#D9D9D9" fill-opacity="0.1"/>
<rect x="86.1995" y="398" width="10" height="10" transform="rotate(46.0493 86.1995 398)" fill="#D9D9D9" fill-opacity="0.1"/>
<rect x="86.1995" y="370" width="10" height="10" transform="rotate(46.0493 86.1995 370)" fill="#D9D9D9" fill-opacity="0.1"/>
<rect x="62.1995" y="363" width="10" height="10" transform="rotate(46.0493 62.1995 363)" fill="#D9D9D9" fill-opacity="0.3"/>
<rect x="22.1995" y="405" width="10" height="10" transform="rotate(46.0493 22.1995 405)" fill="#D9D9D9"/>
<rect x="36.1995" y="419" width="10" height="10" transform="rotate(46.0493 36.1995 419)" fill="#D9D9D9" fill-opacity="0.3"/>
<rect x="36.1995" y="391" width="10" height="10" transform="rotate(46.0493 36.1995 391)" fill="#D9D9D9" fill-opacity="0.3"/>
<rect x="12.1995" y="384" width="10" height="10" transform="rotate(46.0493 12.1995 384)" fill="#D9D9D9"/>
<rect x="61.1995" y="423" width="10" height="10" transform="rotate(46.0493 61.1995 423)" fill="#D9D9D9" fill-opacity="0.1"/>
<rect x="75.1995" y="437" width="10" height="10" transform="rotate(46.0493 75.1995 437)" fill="#D9D9D9" fill-opacity="0.1"/>
<rect x="75.1995" y="409" width="10" height="10" transform="rotate(46.0493 75.1995 409)" fill="#D9D9D9" fill-opacity="0.1"/>
<rect x="51.1995" y="402" width="10" height="10" transform="rotate(46.0493 51.1995 402)" fill="#D9D9D9" fill-opacity="0.3"/>
<rect x="17.1995" y="457" width="10" height="10" transform="rotate(46.0493 17.1995 457)" fill="#D9D9D9"/>
<rect x="31.1995" y="471" width="10" height="10" transform="rotate(46.0493 31.1995 471)" fill="#D9D9D9" fill-opacity="0.3"/>
<rect x="31.1995" y="443" width="10" height="10" transform="rotate(46.0493 31.1995 443)" fill="#D9D9D9" fill-opacity="0.3"/>
<rect x="7.19946" y="436" width="10" height="10" transform="rotate(46.0493 7.19946 436)" fill="#D9D9D9"/>
<rect x="61.1995" y="471" width="10" height="10" transform="rotate(46.0493 61.1995 471)" fill="#D9D9D9" fill-opacity="0.1"/>
<rect x="75.1995" y="485" width="10" height="10" transform="rotate(46.0493 75.1995 485)" fill="#D9D9D9" fill-opacity="0.1"/>
<rect x="75.1995" y="457" width="10" height="10" transform="rotate(46.0493 75.1995 457)" fill="#D9D9D9" fill-opacity="0.1"/>
<rect x="51.1995" y="450" width="10" height="10" transform="rotate(46.0493 51.1995 450)" fill="#D9D9D9" fill-opacity="0.1"/>
<rect x="23.1995" y="506" width="10" height="10" transform="rotate(46.0493 23.1995 506)" fill="#D9D9D9"/>
<rect x="37.1995" y="520" width="10" height="10" transform="rotate(46.0493 37.1995 520)" fill="#D9D9D9" fill-opacity="0.3"/>
<rect x="37.1995" y="492" width="10" height="10" transform="rotate(46.0493 37.1995 492)" fill="#D9D9D9" fill-opacity="0.3"/>
<rect x="13.1995" y="485" width="10" height="10" transform="rotate(46.0493 13.1995 485)" fill="#D9D9D9"/>
<rect x="67.1995" y="524" width="10" height="10" transform="rotate(46.0493 67.1995 524)" fill="#D9D9D9" fill-opacity="0.1"/>
<rect x="81.1995" y="538" width="10" height="10" transform="rotate(46.0493 81.1995 538)" fill="#D9D9D9" fill-opacity="0.1"/>
<rect x="81.1995" y="510" width="10" height="10" transform="rotate(46.0493 81.1995 510)" fill="#D9D9D9" fill-opacity="0.1"/>
<rect x="57.1995" y="503" width="10" height="10" transform="rotate(46.0493 57.1995 503)" fill="#D9D9D9" fill-opacity="0.1"/>
<rect x="18.1995" y="551" width="10" height="10" transform="rotate(46.0493 18.1995 551)" fill="#D9D9D9"/>
<rect x="32.1995" y="565" width="10" height="10" transform="rotate(46.0493 32.1995 565)" fill="#D9D9D9"/>
<rect x="7.19946" y="565" width="10" height="10" transform="rotate(46.0493 7.19946 565)" fill="#D9D9D9"/>
<rect x="20.1995" y="579" width="10" height="10" transform="rotate(46.0493 20.1995 579)" fill="#D9D9D9"/>
<rect x="41.1995" y="586" width="10" height="10" transform="rotate(46.0493 41.1995 586)" fill="#D9D9D9" fill-opacity="0.3"/>
<rect x="3.19946" y="587" width="10" height="10" transform="rotate(46.0493 3.19946 587)" fill="#D9D9D9"/>
<rect x="32.1995" y="537" width="10" height="10" transform="rotate(46.0493 32.1995 537)" fill="#D9D9D9" fill-opacity="0.3"/>
<rect x="8.19946" y="530" width="10" height="10" transform="rotate(46.0493 8.19946 530)" fill="#D9D9D9"/>
<rect x="58.1995" y="573" width="10" height="10" transform="rotate(46.0493 58.1995 573)" fill="#D9D9D9" fill-opacity="0.1"/>
<rect x="72.1995" y="587" width="10" height="10" transform="rotate(46.0493 72.1995 587)" fill="#D9D9D9" fill-opacity="0.1"/>
<rect x="72.1995" y="559" width="10" height="10" transform="rotate(46.0493 72.1995 559)" fill="#D9D9D9" fill-opacity="0.1"/>
<rect x="48.1995" y="552" width="10" height="10" transform="rotate(46.0493 48.1995 552)" fill="#D9D9D9" fill-opacity="0.3"/>
<rect x="68.1995" y="100" width="10" height="10" transform="rotate(46.0493 68.1995 100)" fill="#D9D9D9" fill-opacity="0.1"/>
<rect x="82.1995" y="114" width="10" height="10" transform="rotate(46.0493 82.1995 114)" fill="#D9D9D9" fill-opacity="0.1"/>
<rect x="82.1995" y="86" width="10" height="10" transform="rotate(46.0493 82.1995 86)" fill="#D9D9D9" fill-opacity="0.1"/>
<rect x="41.1995" y="90" width="10" height="10" transform="rotate(46.0493 41.1995 90)" fill="#D9D9D9" fill-opacity="0.3"/>
<rect x="7.19946" y="104" width="10" height="10" transform="rotate(46.0493 7.19946 104)" fill="#D9D9D9"/>
<rect x="57.1995" y="18" width="10" height="10" transform="rotate(46.0493 57.1995 18)" fill="#D9D9D9" fill-opacity="0.1"/>
<rect x="70.1995" y="38" width="10" height="10" transform="rotate(46.0493 70.1995 38)" fill="#D9D9D9" fill-opacity="0.1"/>
<rect x="57.1995" y="18" width="10" height="10" transform="rotate(46.0493 57.1995 18)" fill="#D9D9D9" fill-opacity="0.1"/>
<rect x="71.1995" y="3" width="10" height="10" transform="rotate(46.0493 71.1995 3)" fill="#D9D9D9" fill-opacity="0.1"/>
<rect x="72.1995" y="66" width="10" height="10" transform="rotate(46.0493 72.1995 66)" fill="#D9D9D9" fill-opacity="0.1"/>
<rect x="11.1995" y="200" width="10" height="10" transform="rotate(46.0493 11.1995 200)" fill="#D9D9D9"/>
<rect x="11.1995" y="221" width="10" height="10" transform="rotate(46.0493 11.1995 221)" fill="#D9D9D9"/>
<rect x="22.1995" y="242" width="10" height="10" transform="rotate(46.0493 22.1995 242)" fill="#D9D9D9"/>
<rect x="7.19946" y="252" width="10" height="10" transform="rotate(46.0493 7.19946 252)" fill="#D9D9D9"/>
<rect x="70.1995" y="170" width="10" height="10" transform="rotate(46.0493 70.1995 170)" fill="#D9D9D9" fill-opacity="0.1"/>
<rect x="56.1995" y="180" width="10" height="10" transform="rotate(46.0493 56.1995 180)" fill="#D9D9D9" fill-opacity="0.1"/>
<rect x="11.1995" y="280" width="10" height="10" transform="rotate(46.0493 11.1995 280)" fill="#D9D9D9"/>
<rect x="19.1995" y="313" width="10" height="10" transform="rotate(46.0493 19.1995 313)" fill="#D9D9D9"/>
<rect x="7.19946" y="331" width="10" height="10" transform="rotate(46.0493 7.19946 331)" fill="#D9D9D9"/>
<rect x="33.1995" y="328" width="10" height="10" transform="rotate(46.0493 33.1995 328)" fill="#D9D9D9"/>
<rect x="65.1995" y="342" width="10" height="10" transform="rotate(46.0493 65.1995 342)" fill="#D9D9D9" fill-opacity="0.3"/>
<rect x="62.1995" y="309" width="10" height="10" transform="rotate(46.0493 62.1995 309)" fill="#D9D9D9" fill-opacity="0.3"/>
<rect x="8.19946" y="360" width="10" height="10" transform="rotate(46.0493 8.19946 360)" fill="#D9D9D9"/>
<rect x="7.19946" y="412" width="10" height="10" transform="rotate(46.0493 7.19946 412)" fill="#D9D9D9"/>
<rect x="47.1995" y="431" width="10" height="10" transform="rotate(46.0493 47.1995 431)" fill="#D9D9D9" fill-opacity="0.3"/>
<rect x="20.1995" y="425" width="10" height="10" transform="rotate(46.0493 20.1995 425)" fill="#D9D9D9"/>
<rect x="47.1995" y="485" width="10" height="10" transform="rotate(46.0493 47.1995 485)" fill="#D9D9D9" fill-opacity="0.1"/>
<rect x="3.19946" y="471" width="10" height="10" transform="rotate(46.0493 3.19946 471)" fill="#D9D9D9"/>
<rect x="7.19946" y="508" width="10" height="10" transform="rotate(46.0493 7.19946 508)" fill="#D9D9D9"/>
<rect x="55.1995" y="534" width="10" height="10" transform="rotate(46.0493 55.1995 534)" fill="#D9D9D9" fill-opacity="0.1"/>
<rect x="58.1995" y="79" width="10" height="10" transform="rotate(46.0493 58.1995 79)" fill="#D9D9D9" fill-opacity="0.3"/>
<rect x="11.1995" y="21" width="10" height="10" transform="rotate(46.0493 11.1995 21)" fill="#D9D9D9"/>
<rect x="15.1995" y="42" width="10" height="10" transform="rotate(46.0493 15.1995 42)" fill="#D9D9D9"/>
<rect x="32.1995" y="49" width="10" height="10" transform="rotate(46.0493 32.1995 49)" fill="#D9D9D9" fill-opacity="0.3"/>
<rect x="53.1995" y="52" width="10" height="10" transform="rotate(46.0493 53.1995 52)" fill="#D9D9D9" fill-opacity="0.3"/>
<rect x="39.1995" y="69" width="10" height="10" transform="rotate(46.0493 39.1995 69)" fill="#D9D9D9" fill-opacity="0.3"/>
<rect x="18.1995" y="62" width="10" height="10" transform="rotate(46.0493 18.1995 62)" fill="#D9D9D9"/>
<rect x="7.19946" y="79" width="10" height="10" transform="rotate(46.0493 7.19946 79)" fill="#D9D9D9"/>
<rect x="25.1995" y="83" width="10" height="10" transform="rotate(46.0493 25.1995 83)" fill="#D9D9D9"/>
<rect x="36.1995" y="121" width="10" height="10" transform="rotate(46.0493 36.1995 121)" fill="#D9D9D9" fill-opacity="0.3"/>
<rect x="50.1995" y="135" width="10" height="10" transform="rotate(46.0493 50.1995 135)" fill="#D9D9D9" fill-opacity="0.3"/>
<rect x="50.1995" y="107" width="10" height="10" transform="rotate(46.0493 50.1995 107)" fill="#D9D9D9" fill-opacity="0.3"/>
<rect x="26.1995" y="100" width="10" height="10" transform="rotate(46.0493 26.1995 100)" fill="#D9D9D9"/>
<rect x="15.1995" y="121" width="10" height="10" transform="rotate(46.0493 15.1995 121)" fill="#D9D9D9"/>
<rect x="19.1995" y="142" width="10" height="10" transform="rotate(46.0493 19.1995 142)" fill="#D9D9D9"/>
<rect x="36.1995" y="149" width="10" height="10" transform="rotate(46.0493 36.1995 149)" fill="#D9D9D9" fill-opacity="0.3"/>
<rect x="57.1995" y="152" width="10" height="10" transform="rotate(46.0493 57.1995 152)" fill="#D9D9D9" fill-opacity="0.3"/>
<rect x="43.1995" y="169" width="10" height="10" transform="rotate(46.0493 43.1995 169)" fill="#D9D9D9" fill-opacity="0.3"/>
<rect x="22.1995" y="162" width="10" height="10" transform="rotate(46.0493 22.1995 162)" fill="#D9D9D9"/>
<rect x="11.1995" y="179" width="10" height="10" transform="rotate(46.0493 11.1995 179)" fill="#D9D9D9"/>
<rect x="29.1995" y="183" width="10" height="10" transform="rotate(46.0493 29.1995 183)" fill="#D9D9D9" fill-opacity="0.3"/>
<rect x="51.1995" y="211" width="10" height="10" transform="rotate(46.0493 51.1995 211)" fill="#D9D9D9" fill-opacity="0.1"/>
<rect x="65.1995" y="225" width="10" height="10" transform="rotate(46.0493 65.1995 225)" fill="#D9D9D9" fill-opacity="0.1"/>
<rect x="65.1995" y="197" width="10" height="10" transform="rotate(46.0493 65.1995 197)" fill="#D9D9D9" fill-opacity="0.1"/>
<rect x="41.1995" y="190" width="10" height="10" transform="rotate(46.0493 41.1995 190)" fill="#D9D9D9" fill-opacity="0.3"/>
<rect x="30.1995" y="211" width="10" height="10" transform="rotate(46.0493 30.1995 211)" fill="#D9D9D9" fill-opacity="0.3"/>
<rect x="34.1995" y="232" width="10" height="10" transform="rotate(46.0493 34.1995 232)" fill="#D9D9D9" fill-opacity="0.3"/>
<rect x="51.1995" y="239" width="10" height="10" transform="rotate(46.0493 51.1995 239)" fill="#D9D9D9" fill-opacity="0.3"/>
<rect x="72.1995" y="242" width="10" height="10" transform="rotate(46.0493 72.1995 242)" fill="#D9D9D9" fill-opacity="0.1"/>
<rect x="58.1995" y="259" width="10" height="10" transform="rotate(46.0493 58.1995 259)" fill="#D9D9D9" fill-opacity="0.1"/>
<rect x="37.1995" y="252" width="10" height="10" transform="rotate(46.0493 37.1995 252)" fill="#D9D9D9" fill-opacity="0.3"/>
<rect x="26.1995" y="269" width="10" height="10" transform="rotate(46.0493 26.1995 269)" fill="#D9D9D9"/>
<rect x="44.1995" y="273" width="10" height="10" transform="rotate(46.0493 44.1995 273)" fill="#D9D9D9" fill-opacity="0.3"/>
<rect width="9.89822" height="9.90454" transform="matrix(-0.700286 -0.713862 0.725954 -0.687743 1403.85 576.389)" fill="#D9D9D9" fill-opacity="0.3"/>
<rect width="9.89822" height="9.90454" transform="matrix(-0.700286 -0.713862 0.725954 -0.687743 1389.86 562.649)" fill="#D9D9D9" fill-opacity="0.3"/>
<rect width="9.89822" height="9.90454" transform="matrix(-0.700286 -0.713862 0.725954 -0.687743 1389.86 590.13)" fill="#D9D9D9" fill-opacity="0.3"/>
<rect width="9.89822" height="9.90454" transform="matrix(-0.700286 -0.713862 0.725954 -0.687743 1413.83 597)" fill="#D9D9D9"/>
<rect width="9.89822" height="9.90454" transform="matrix(-0.700286 -0.713862 0.725954 -0.687743 1358.9 454.687)" fill="#D9D9D9" fill-opacity="0.1"/>
<rect width="9.89822" height="9.90454" transform="matrix(-0.700286 -0.713862 0.725954 -0.687743 1344.92 440.946)" fill="#D9D9D9" fill-opacity="0.1"/>
<rect width="9.89822" height="9.90454" transform="matrix(-0.700286 -0.713862 0.725954 -0.687743 1344.92 468.427)" fill="#D9D9D9" fill-opacity="0.1"/>
<rect width="9.89822" height="9.90454" transform="matrix(-0.700286 -0.713862 0.725954 -0.687743 1368.89 475.298)" fill="#D9D9D9" fill-opacity="0.3"/>
<rect width="9.89822" height="9.90454" transform="matrix(-0.700286 -0.713862 0.725954 -0.687743 1360.9 305.504)" fill="#D9D9D9" fill-opacity="0.1"/>
<rect width="9.89822" height="9.90454" transform="matrix(-0.700286 -0.713862 0.725954 -0.687743 1346.92 291.763)" fill="#D9D9D9" fill-opacity="0.1"/>
<rect width="9.89822" height="9.90454" transform="matrix(-0.700286 -0.713862 0.725954 -0.687743 1346.92 319.244)" fill="#D9D9D9" fill-opacity="0.1"/>
<rect width="9.89822" height="9.90454" transform="matrix(-0.700286 -0.713862 0.725954 -0.687743 1370.89 326.115)" fill="#D9D9D9" fill-opacity="0.1"/>
<rect width="9.89822" height="9.90454" transform="matrix(-0.700286 -0.713862 0.725954 -0.687743 1396.86 291.763)" fill="#D9D9D9" fill-opacity="0.3"/>
<rect width="9.89822" height="9.90454" transform="matrix(-0.700286 -0.713862 0.725954 -0.687743 1382.87 278.022)" fill="#D9D9D9" fill-opacity="0.3"/>
<rect width="9.89822" height="9.90454" transform="matrix(-0.700286 -0.713862 0.725954 -0.687743 1382.87 305.504)" fill="#D9D9D9" fill-opacity="0.3"/>
<rect width="9.89822" height="9.90454" transform="matrix(-0.700286 -0.713862 0.725954 -0.687743 1406.84 312.374)" fill="#D9D9D9"/>
<rect width="9.89822" height="9.90454" transform="matrix(-0.700286 -0.713862 0.725954 -0.687743 1401.85 237.782)" fill="#D9D9D9" fill-opacity="0.3"/>
<rect width="9.89822" height="9.90454" transform="matrix(-0.700286 -0.713862 0.725954 -0.687743 1387.87 224.042)" fill="#D9D9D9" fill-opacity="0.3"/>
<rect width="9.89822" height="9.90454" transform="matrix(-0.700286 -0.713862 0.725954 -0.687743 1387.87 251.523)" fill="#D9D9D9" fill-opacity="0.3"/>
<rect width="9.89822" height="9.90454" transform="matrix(-0.700286 -0.713862 0.725954 -0.687743 1411.84 258.393)" fill="#D9D9D9"/>
<rect width="9.89822" height="9.90454" transform="matrix(-0.700286 -0.713862 0.725954 -0.687743 1350.91 257.412)" fill="#D9D9D9" fill-opacity="0.1"/>
<rect width="9.89822" height="9.90454" transform="matrix(-0.700286 -0.713862 0.725954 -0.687743 1336.93 243.671)" fill="#D9D9D9" fill-opacity="0.1"/>
<rect width="9.89822" height="9.90454" transform="matrix(-0.700286 -0.713862 0.725954 -0.687743 1336.93 271.152)" fill="#D9D9D9" fill-opacity="0.1"/>
<rect width="9.89822" height="9.90454" transform="matrix(-0.700286 -0.713862 0.725954 -0.687743 1360.9 278.022)" fill="#D9D9D9" fill-opacity="0.3"/>
<rect width="9.89822" height="9.90454" transform="matrix(-0.700286 -0.713862 0.725954 -0.687743 1363.9 220.116)" fill="#D9D9D9" fill-opacity="0.1"/>
<rect width="9.89822" height="9.90454" transform="matrix(-0.700286 -0.713862 0.725954 -0.687743 1349.92 206.375)" fill="#D9D9D9" fill-opacity="0.1"/>
<rect width="9.89822" height="9.90454" transform="matrix(-0.700286 -0.713862 0.725954 -0.687743 1349.92 233.856)" fill="#D9D9D9" fill-opacity="0.1"/>
<rect width="9.89822" height="9.90454" transform="matrix(-0.700286 -0.713862 0.725954 -0.687743 1373.88 240.727)" fill="#D9D9D9" fill-opacity="0.3"/>
<rect width="9.89822" height="9.90454" transform="matrix(-0.700286 -0.713862 0.725954 -0.687743 1413.83 199.505)" fill="#D9D9D9"/>
<rect width="9.89822" height="9.90454" transform="matrix(-0.700286 -0.713862 0.725954 -0.687743 1399.85 185.764)" fill="#D9D9D9" fill-opacity="0.3"/>
<rect width="9.89822" height="9.90454" transform="matrix(-0.700286 -0.713862 0.725954 -0.687743 1399.85 213.246)" fill="#D9D9D9" fill-opacity="0.3"/>
<rect width="9.89822" height="9.90454" transform="matrix(-0.700286 -0.713862 0.725954 -0.687743 1423.82 220.116)" fill="#D9D9D9"/>
<rect width="9.89822" height="9.90454" transform="matrix(-0.700286 -0.713862 0.725954 -0.687743 1374.88 181.839)" fill="#D9D9D9" fill-opacity="0.1"/>
<rect width="9.89822" height="9.90454" transform="matrix(-0.700286 -0.713862 0.725954 -0.687743 1360.9 168.098)" fill="#D9D9D9" fill-opacity="0.1"/>
<rect width="9.89822" height="9.90454" transform="matrix(-0.700286 -0.713862 0.725954 -0.687743 1360.9 195.579)" fill="#D9D9D9" fill-opacity="0.1"/>
<rect width="9.89822" height="9.90454" transform="matrix(-0.700286 -0.713862 0.725954 -0.687743 1384.87 202.449)" fill="#D9D9D9" fill-opacity="0.3"/>
<rect width="9.89822" height="9.90454" transform="matrix(-0.700286 -0.713862 0.725954 -0.687743 1418.83 148.469)" fill="#D9D9D9"/>
<rect width="9.89822" height="9.90454" transform="matrix(-0.700286 -0.713862 0.725954 -0.687743 1404.85 134.728)" fill="#D9D9D9" fill-opacity="0.3"/>
<rect width="9.89822" height="9.90454" transform="matrix(-0.700286 -0.713862 0.725954 -0.687743 1404.85 162.209)" fill="#D9D9D9" fill-opacity="0.3"/>
<rect width="9.89822" height="9.90454" transform="matrix(-0.700286 -0.713862 0.725954 -0.687743 1428.81 169.08)" fill="#D9D9D9"/>
<rect width="9.89822" height="9.90454" transform="matrix(-0.700286 -0.713862 0.725954 -0.687743 1374.88 134.728)" fill="#D9D9D9" fill-opacity="0.1"/>
<rect width="9.89822" height="9.90454" transform="matrix(-0.700286 -0.713862 0.725954 -0.687743 1360.9 120.988)" fill="#D9D9D9" fill-opacity="0.1"/>
<rect width="9.89822" height="9.90454" transform="matrix(-0.700286 -0.713862 0.725954 -0.687743 1360.9 148.469)" fill="#D9D9D9" fill-opacity="0.1"/>
<rect width="9.89822" height="9.90454" transform="matrix(-0.700286 -0.713862 0.725954 -0.687743 1384.87 155.339)" fill="#D9D9D9" fill-opacity="0.1"/>
<rect width="9.89822" height="9.90454" transform="matrix(-0.700286 -0.713862 0.725954 -0.687743 1412.84 100.377)" fill="#D9D9D9"/>
<rect width="9.89822" height="9.90454" transform="matrix(-0.700286 -0.713862 0.725954 -0.687743 1398.85 86.636)" fill="#D9D9D9" fill-opacity="0.3"/>
<rect width="9.89822" height="9.90454" transform="matrix(-0.700286 -0.713862 0.725954 -0.687743 1398.85 114.117)" fill="#D9D9D9" fill-opacity="0.3"/>
<rect width="9.89822" height="9.90454" transform="matrix(-0.700286 -0.713862 0.725954 -0.687743 1422.82 120.988)" fill="#D9D9D9"/>
<rect width="9.89822" height="9.90454" transform="matrix(-0.700286 -0.713862 0.725954 -0.687743 1368.89 82.7102)" fill="#D9D9D9" fill-opacity="0.1"/>
<rect width="9.89822" height="9.90454" transform="matrix(-0.700286 -0.713862 0.725954 -0.687743 1354.91 68.9697)" fill="#D9D9D9" fill-opacity="0.1"/>
<rect width="9.89822" height="9.90454" transform="matrix(-0.700286 -0.713862 0.725954 -0.687743 1354.91 96.4507)" fill="#D9D9D9" fill-opacity="0.1"/>
<rect width="9.89822" height="9.90454" transform="matrix(-0.700286 -0.713862 0.725954 -0.687743 1378.88 103.321)" fill="#D9D9D9" fill-opacity="0.1"/>
<rect width="9.89822" height="9.90454" transform="matrix(-0.700286 -0.713862 0.725954 -0.687743 1417.83 56.2104)" fill="#D9D9D9"/>
<rect width="9.89822" height="9.90454" transform="matrix(-0.700286 -0.713862 0.725954 -0.687743 1403.85 42.47)" fill="#D9D9D9"/>
<rect width="9.89822" height="9.90454" transform="matrix(-0.700286 -0.713862 0.725954 -0.687743 1428.81 42.47)" fill="#D9D9D9"/>
<rect width="9.89822" height="9.90454" transform="matrix(-0.700286 -0.713862 0.725954 -0.687743 1415.83 28.7295)" fill="#D9D9D9"/>
<rect width="9.89822" height="9.90454" transform="matrix(-0.700286 -0.713862 0.725954 -0.687743 1394.86 21.8591)" fill="#D9D9D9" fill-opacity="0.3"/>
<rect width="9.89822" height="9.90454" transform="matrix(-0.700286 -0.713862 0.725954 -0.687743 1432.81 20.8777)" fill="#D9D9D9"/>
<rect width="9.89822" height="9.90454" transform="matrix(-0.700286 -0.713862 0.725954 -0.687743 1403.85 69.9512)" fill="#D9D9D9" fill-opacity="0.3"/>
<rect width="9.89822" height="9.90454" transform="matrix(-0.700286 -0.713862 0.725954 -0.687743 1427.82 76.8213)" fill="#D9D9D9"/>
<rect width="9.89822" height="9.90454" transform="matrix(-0.700286 -0.713862 0.725954 -0.687743 1377.88 34.6182)" fill="#D9D9D9" fill-opacity="0.1"/>
<rect width="9.89822" height="9.90454" transform="matrix(-0.700286 -0.713862 0.725954 -0.687743 1363.9 20.8777)" fill="#D9D9D9" fill-opacity="0.1"/>
<rect width="9.89822" height="9.90454" transform="matrix(-0.700286 -0.713862 0.725954 -0.687743 1363.9 48.3589)" fill="#D9D9D9" fill-opacity="0.1"/>
<rect width="9.89822" height="9.90454" transform="matrix(-0.700286 -0.713862 0.725954 -0.687743 1387.87 55.229)" fill="#D9D9D9" fill-opacity="0.3"/>
<rect width="9.89822" height="9.90454" transform="matrix(-0.700286 -0.713862 0.725954 -0.687743 1367.89 498.853)" fill="#D9D9D9" fill-opacity="0.1"/>
<rect width="9.89822" height="9.90454" transform="matrix(-0.700286 -0.713862 0.725954 -0.687743 1353.91 485.113)" fill="#D9D9D9" fill-opacity="0.1"/>
<rect width="9.89822" height="9.90454" transform="matrix(-0.700286 -0.713862 0.725954 -0.687743 1353.91 512.594)" fill="#D9D9D9" fill-opacity="0.1"/>
<rect width="9.89822" height="9.90454" transform="matrix(-0.700286 -0.713862 0.725954 -0.687743 1394.86 508.668)" fill="#D9D9D9" fill-opacity="0.3"/>
<rect width="9.89822" height="9.90454" transform="matrix(-0.700286 -0.713862 0.725954 -0.687743 1428.81 494.927)" fill="#D9D9D9"/>
<rect width="9.89822" height="9.90454" transform="matrix(-0.700286 -0.713862 0.725954 -0.687743 1378.88 579.333)" fill="#D9D9D9" fill-opacity="0.1"/>
<rect width="9.89822" height="9.90454" transform="matrix(-0.700286 -0.713862 0.725954 -0.687743 1365.89 559.704)" fill="#D9D9D9" fill-opacity="0.1"/>
<rect width="9.89822" height="9.90454" transform="matrix(-0.700286 -0.713862 0.725954 -0.687743 1378.88 579.333)" fill="#D9D9D9" fill-opacity="0.1"/>
<rect width="9.89822" height="9.90454" transform="matrix(-0.700286 -0.713862 0.725954 -0.687743 1364.9 594.056)" fill="#D9D9D9" fill-opacity="0.1"/>
<rect width="9.89822" height="9.90454" transform="matrix(-0.700286 -0.713862 0.725954 -0.687743 1363.9 532.223)" fill="#D9D9D9" fill-opacity="0.1"/>
<rect width="9.89822" height="9.90454" transform="matrix(-0.700286 -0.713862 0.725954 -0.687743 1424.82 400.706)" fill="#D9D9D9"/>
<rect width="9.89822" height="9.90454" transform="matrix(-0.700286 -0.713862 0.725954 -0.687743 1424.82 380.095)" fill="#D9D9D9"/>
<rect width="9.89822" height="9.90454" transform="matrix(-0.700286 -0.713862 0.725954 -0.687743 1413.83 359.484)" fill="#D9D9D9"/>
<rect width="9.89822" height="9.90454" transform="matrix(-0.700286 -0.713862 0.725954 -0.687743 1428.81 349.67)" fill="#D9D9D9"/>
<rect width="9.89822" height="9.90454" transform="matrix(-0.700286 -0.713862 0.725954 -0.687743 1365.89 430.15)" fill="#D9D9D9" fill-opacity="0.1"/>
<rect width="9.89822" height="9.90454" transform="matrix(-0.700286 -0.713862 0.725954 -0.687743 1379.88 420.335)" fill="#D9D9D9" fill-opacity="0.1"/>
<rect width="9.89822" height="9.90454" transform="matrix(-0.700286 -0.713862 0.725954 -0.687743 1424.82 322.189)" fill="#D9D9D9"/>
<rect width="9.89822" height="9.90454" transform="matrix(-0.700286 -0.713862 0.725954 -0.687743 1416.83 289.8)" fill="#D9D9D9"/>
<rect width="9.89822" height="9.90454" transform="matrix(-0.700286 -0.713862 0.725954 -0.687743 1428.81 272.134)" fill="#D9D9D9"/>
<rect width="9.89822" height="9.90454" transform="matrix(-0.700286 -0.713862 0.725954 -0.687743 1402.85 275.078)" fill="#D9D9D9"/>
<rect width="9.89822" height="9.90454" transform="matrix(-0.700286 -0.713862 0.725954 -0.687743 1370.89 261.338)" fill="#D9D9D9" fill-opacity="0.3"/>
<rect width="9.89822" height="9.90454" transform="matrix(-0.700286 -0.713862 0.725954 -0.687743 1373.88 293.726)" fill="#D9D9D9" fill-opacity="0.3"/>
<rect width="9.89822" height="9.90454" transform="matrix(-0.700286 -0.713862 0.725954 -0.687743 1427.82 243.671)" fill="#D9D9D9"/>
<rect width="9.89822" height="9.90454" transform="matrix(-0.700286 -0.713862 0.725954 -0.687743 1428.81 192.635)" fill="#D9D9D9"/>
<rect width="9.89822" height="9.90454" transform="matrix(-0.700286 -0.713862 0.725954 -0.687743 1388.87 173.987)" fill="#D9D9D9" fill-opacity="0.3"/>
<rect width="9.89822" height="9.90454" transform="matrix(-0.700286 -0.713862 0.725954 -0.687743 1415.83 179.875)" fill="#D9D9D9"/>
<rect width="9.89822" height="9.90454" transform="matrix(-0.700286 -0.713862 0.725954 -0.687743 1388.87 120.988)" fill="#D9D9D9" fill-opacity="0.1"/>
<rect width="9.89822" height="9.90454" transform="matrix(-0.700286 -0.713862 0.725954 -0.687743 1432.81 134.728)" fill="#D9D9D9"/>
<rect width="9.89822" height="9.90454" transform="matrix(-0.700286 -0.713862 0.725954 -0.687743 1428.81 98.4136)" fill="#D9D9D9"/>
<rect width="9.89822" height="9.90454" transform="matrix(-0.700286 -0.713862 0.725954 -0.687743 1380.88 72.8955)" fill="#D9D9D9" fill-opacity="0.1"/>
<rect width="9.89822" height="9.90454" transform="matrix(-0.700286 -0.713862 0.725954 -0.687743 1377.88 519.464)" fill="#D9D9D9" fill-opacity="0.3"/>
<rect width="9.89822" height="9.90454" transform="matrix(-0.700286 -0.713862 0.725954 -0.687743 1424.82 576.389)" fill="#D9D9D9"/>
<rect width="9.89822" height="9.90454" transform="matrix(-0.700286 -0.713862 0.725954 -0.687743 1420.83 555.778)" fill="#D9D9D9"/>
<rect width="9.89822" height="9.90454" transform="matrix(-0.700286 -0.713862 0.725954 -0.687743 1403.85 548.908)" fill="#D9D9D9" fill-opacity="0.3"/>
<rect width="9.89822" height="9.90454" transform="matrix(-0.700286 -0.713862 0.725954 -0.687743 1382.87 545.964)" fill="#D9D9D9" fill-opacity="0.3"/>
<rect width="9.89822" height="9.90454" transform="matrix(-0.700286 -0.713862 0.725954 -0.687743 1396.86 529.279)" fill="#D9D9D9" fill-opacity="0.3"/>
<rect width="9.89822" height="9.90454" transform="matrix(-0.700286 -0.713862 0.725954 -0.687743 1417.83 536.149)" fill="#D9D9D9"/>
<rect width="9.89822" height="9.90454" transform="matrix(-0.700286 -0.713862 0.725954 -0.687743 1428.81 519.464)" fill="#D9D9D9"/>
<rect width="9.89822" height="9.90454" transform="matrix(-0.700286 -0.713862 0.725954 -0.687743 1410.84 515.538)" fill="#D9D9D9"/>
<rect width="9.89822" height="9.90454" transform="matrix(-0.700286 -0.713862 0.725954 -0.687743 1399.85 478.242)" fill="#D9D9D9" fill-opacity="0.3"/>
<rect width="9.89822" height="9.90454" transform="matrix(-0.700286 -0.713862 0.725954 -0.687743 1385.87 464.502)" fill="#D9D9D9" fill-opacity="0.3"/>
<rect width="9.89822" height="9.90454" transform="matrix(-0.700286 -0.713862 0.725954 -0.687743 1385.87 491.983)" fill="#D9D9D9" fill-opacity="0.3"/>
<rect width="9.89822" height="9.90454" transform="matrix(-0.700286 -0.713862 0.725954 -0.687743 1409.84 498.853)" fill="#D9D9D9"/>
<rect width="9.89822" height="9.90454" transform="matrix(-0.700286 -0.713862 0.725954 -0.687743 1420.83 478.242)" fill="#D9D9D9"/>
<rect width="9.89822" height="9.90454" transform="matrix(-0.700286 -0.713862 0.725954 -0.687743 1416.83 457.631)" fill="#D9D9D9"/>
<rect width="9.89822" height="9.90454" transform="matrix(-0.700286 -0.713862 0.725954 -0.687743 1399.85 450.761)" fill="#D9D9D9" fill-opacity="0.3"/>
<rect width="9.89822" height="9.90454" transform="matrix(-0.700286 -0.713862 0.725954 -0.687743 1378.88 447.817)" fill="#D9D9D9" fill-opacity="0.3"/>
<rect width="9.89822" height="9.90454" transform="matrix(-0.700286 -0.713862 0.725954 -0.687743 1392.86 431.132)" fill="#D9D9D9" fill-opacity="0.3"/>
<rect width="9.89822" height="9.90454" transform="matrix(-0.700286 -0.713862 0.725954 -0.687743 1413.83 438.002)" fill="#D9D9D9"/>
<rect width="9.89822" height="9.90454" transform="matrix(-0.700286 -0.713862 0.725954 -0.687743 1424.82 421.317)" fill="#D9D9D9"/>
<rect width="9.89822" height="9.90454" transform="matrix(-0.700286 -0.713862 0.725954 -0.687743 1406.84 417.391)" fill="#D9D9D9" fill-opacity="0.3"/>
<rect width="9.89822" height="9.90454" transform="matrix(-0.700286 -0.713862 0.725954 -0.687743 1384.87 389.91)" fill="#D9D9D9" fill-opacity="0.1"/>
<rect width="9.89822" height="9.90454" transform="matrix(-0.700286 -0.713862 0.725954 -0.687743 1370.89 376.169)" fill="#D9D9D9" fill-opacity="0.1"/>
<rect width="9.89822" height="9.90454" transform="matrix(-0.700286 -0.713862 0.725954 -0.687743 1370.89 403.651)" fill="#D9D9D9" fill-opacity="0.1"/>
<rect width="9.89822" height="9.90454" transform="matrix(-0.700286 -0.713862 0.725954 -0.687743 1394.86 410.521)" fill="#D9D9D9" fill-opacity="0.3"/>
<rect width="9.89822" height="9.90454" transform="matrix(-0.700286 -0.713862 0.725954 -0.687743 1405.84 389.91)" fill="#D9D9D9" fill-opacity="0.3"/>
<rect width="9.89822" height="9.90454" transform="matrix(-0.700286 -0.713862 0.725954 -0.687743 1401.85 369.299)" fill="#D9D9D9" fill-opacity="0.3"/>
<rect width="9.89822" height="9.90454" transform="matrix(-0.700286 -0.713862 0.725954 -0.687743 1384.87 362.429)" fill="#D9D9D9" fill-opacity="0.3"/>
<rect width="9.89822" height="9.90454" transform="matrix(-0.700286 -0.713862 0.725954 -0.687743 1363.9 359.484)" fill="#D9D9D9" fill-opacity="0.1"/>
<rect width="9.89822" height="9.90454" transform="matrix(-0.700286 -0.713862 0.725954 -0.687743 1377.88 342.8)" fill="#D9D9D9" fill-opacity="0.1"/>
<rect width="9.89822" height="9.90454" transform="matrix(-0.700286 -0.713862 0.725954 -0.687743 1398.85 349.67)" fill="#D9D9D9" fill-opacity="0.3"/>
<rect width="9.89822" height="9.90454" transform="matrix(-0.700286 -0.713862 0.725954 -0.687743 1409.84 332.985)" fill="#D9D9D9"/>
<rect width="9.89822" height="9.90454" transform="matrix(-0.700286 -0.713862 0.725954 -0.687743 1391.86 329.059)" fill="#D9D9D9" fill-opacity="0.3"/>
</svg>
